<?xml version="1.0" encoding="UTF-8"?><svg id="a" xmlns="http://www.w3.org/2000/svg" width="392.77" height="96.96" viewBox="0 0 392.77 96.96"><defs><style>.b{fill:#000000;stroke-width:0px;}</style></defs><path class="b" d="m368.35,2.76h-4.12V.03h12.01v2.73h-4.1v9.45h-3.79V2.76Z"/><path class="b" d="m389.29,12.21l-.04-6.45-3.45,5.25h-1.69l-3.43-5.08v6.28h-3.5V.03h3.12l4.71,7.03L389.61.03h3.12l.04,12.18h-3.48Z"/><path class="b" d="m0,38.5V0h23.6v37.8c0,10.7,4.1,14.7,10.7,14.7s10.7-4,10.7-14.7V0h23.2v38.5c0,21-12.6,33.1-34.1,33.1S0,59.5,0,38.5Z"/><path class="b" d="m140.5,0v70h-19.4l-26.6-31.8v31.8h-23V0h19.4l26.6,31.8V0h23Z"/><path class="b" d="m143.4,0h23.6v70h-23.6V0Z"/><path class="b" d="m190.1,18.3h-20.5V0h64.6v18.3h-20.5v51.7h-23.6V18.3Z"/><path class="b" d="m295.5,52.2v17.8h-58.2V0h56.9v17.8h-33.7v8.2h29.6v17h-29.6v9.2h35Z"/><path class="b" d="m297.6,0h34.5c23.4,0,39.5,13.3,39.5,35s-16.1,35-39.5,35h-34.5V0Zm33.5,51.6c9.9,0,16.7-5.9,16.7-16.6s-6.8-16.6-16.7-16.6h-9.9v33.2h9.9Z"/><path class="b" d="m184.49,95.94c-1.12.69-2.76,1.02-4.44,1.02-4.44,0-7.02-1.95-7.02-5.8v-6.64h-2.9v-3.6h2.9v-3.94h5.45v3.94h4.68v3.6h-4.68v6.58c0,1.38.87,2.13,2.34,2.13.8,0,1.61-.21,2.2-.6l1.47,3.3Z"/><path class="b" d="m204.16,87.47v9.25h-5.45v-8.53c0-2.61-1.4-3.82-3.81-3.82-2.62,0-4.51,1.38-4.51,4.36v7.99h-5.45v-22.29h5.45v7.81c1.47-1.26,3.56-1.92,5.97-1.92,4.44,0,7.79,2.22,7.79,7.15Z"/><path class="b" d="m224.97,89.96h-14.22c.52,2.01,2.51,3.25,5.38,3.25,1.99,0,3.42-.51,4.72-1.56l2.9,2.7c-1.75,1.71-4.37,2.61-7.75,2.61-6.5,0-10.72-3.52-10.72-8.32s4.3-8.32,10.03-8.32,9.78,3.18,9.78,8.38c0,.36-.07.87-.1,1.26Zm-14.29-2.73h9.26c-.38-2.04-2.17-3.36-4.61-3.36s-4.26,1.29-4.65,3.36Z"/><path class="b" d="m257.84,87.47v9.25h-5.45v-8.53c0-2.61-1.36-3.82-3.56-3.82-2.44,0-4.16,1.35-4.16,4.24v8.11h-5.45v-8.53c0-2.61-1.29-3.82-3.56-3.82-2.41,0-4.12,1.35-4.12,4.24v8.11h-5.45v-16.16h5.2v1.86c1.4-1.38,3.49-2.1,5.9-2.1,2.62,0,4.85.87,6.18,2.64,1.5-1.65,3.95-2.64,6.78-2.64,4.47,0,7.68,2.22,7.68,7.15Z"/><path class="b" d="m278.62,89.96h-14.22c.52,2.01,2.51,3.25,5.38,3.25,1.99,0,3.42-.51,4.72-1.56l2.9,2.7c-1.75,1.71-4.37,2.61-7.75,2.61-6.5,0-10.72-3.52-10.72-8.32s4.3-8.32,10.03-8.32,9.78,3.18,9.78,8.38c0,.36-.07.87-.1,1.26Zm-14.29-2.73h9.26c-.38-2.04-2.17-3.36-4.61-3.36s-4.26,1.29-4.65,3.36Z"/><path class="b" d="m277.93,95.22l1.82-3.36c1.68.93,4.23,1.56,6.53,1.56,2.52,0,3.46-.57,3.46-1.47,0-2.64-11.35.06-11.35-6.4,0-3.06,3.21-5.23,8.7-5.23,2.59,0,5.45.51,7.23,1.41l-1.82,3.33c-1.85-.9-3.7-1.2-5.41-1.2-2.44,0-3.49.66-3.49,1.5,0,2.76,11.35.09,11.35,6.46,0,3-3.25,5.14-8.87,5.14-3.18,0-6.39-.75-8.14-1.74Z"/><path class="b" d="m294.34,94.02c0-1.74,1.5-2.88,3.39-2.88s3.39,1.14,3.39,2.88-1.5,2.94-3.39,2.94-3.39-1.23-3.39-2.94Z"/><path class="b" d="m300.56,88.64c0-4.87,4.37-8.32,10.48-8.32,3.95,0,7.06,1.47,8.42,4.12l-4.23,1.95c-1.01-1.53-2.52-2.22-4.23-2.22-2.76,0-4.93,1.65-4.93,4.48s2.17,4.48,4.93,4.48c1.71,0,3.21-.66,4.23-2.22l4.23,1.98c-1.36,2.58-4.47,4.09-8.42,4.09-6.11,0-10.48-3.46-10.48-8.32Z"/><path class="b" d="m318.34,88.64c0-4.87,4.37-8.32,10.34-8.32s10.3,3.46,10.3,8.32-4.33,8.32-10.3,8.32-10.34-3.46-10.34-8.32Zm15.12,0c0-2.79-2.06-4.48-4.78-4.48s-4.82,1.68-4.82,4.48,2.1,4.48,4.82,4.48,4.78-1.68,4.78-4.48Z"/><path class="b" d="m371.74,87.47v9.25h-5.45v-8.53c0-2.61-1.36-3.82-3.56-3.82-2.44,0-4.16,1.35-4.16,4.24v8.11h-5.45v-8.53c0-2.61-1.29-3.82-3.56-3.82-2.41,0-4.12,1.35-4.12,4.24v8.11h-5.45v-16.16h5.2v1.86c1.4-1.38,3.49-2.1,5.9-2.1,2.62,0,4.85.87,6.18,2.64,1.5-1.65,3.95-2.64,6.78-2.64,4.47,0,7.68,2.22,7.68,7.15Z"/></svg>