<svg xmlns="http://www.w3.org/2000/svg" viewBox="0 0 64 64" aria-labelledby="title"
aria-describedby="desc" role="img" xmlns:xlink="http://www.w3.org/1999/xlink"
width="64" height="64">
  <title>Software Service</title>
  <desc>A line styled icon from Orion Icon Library.</desc>
  <circle data-name="layer2"
  cx="18" cy="10" r="1" fill="none" stroke="#333333" stroke-linecap="round"
  stroke-linejoin="round" stroke-width="2"></circle>
  <circle data-name="layer2" cx="25" cy="10" r="1" fill="none"
  stroke="#333333" stroke-linecap="round" stroke-linejoin="round" stroke-width="2"></circle>
  <circle data-name="layer2" cx="32" cy="10" r="1" fill="none"
  stroke="#333333" stroke-linecap="round" stroke-linejoin="round" stroke-width="2"></circle>
  <path data-name="layer2" fill="none" stroke="#333333" stroke-linecap="round"
  stroke-linejoin="round" stroke-width="2" d="M12 4h50v12H12zm28 42h22V16m-50 0v26"></path>
  <path data-name="layer1" fill="none" stroke="#333333" stroke-linecap="round"
  stroke-linejoin="round" stroke-width="2" d="M2 42h10v18H2zm10 14c4 0 8 4 12 4h36c2 0 8.4-8-20-8-9.6 0-14-2-14-2"></path>
  <path data-name="layer1" d="M12 44c4 0 6-2 12-2s18 1 18 9v1" fill="none"
  stroke="#333333" stroke-linecap="round" stroke-linejoin="round" stroke-width="2"></path>
</svg>