<svg xmlns="http://www.w3.org/2000/svg" viewBox="0 0 64 64" aria-labelledby="title"
aria-describedby="desc" role="img" xmlns:xlink="http://www.w3.org/1999/xlink"
width="64" height="64">
  <title>Data Content</title>
  <desc>A line styled icon from Orion Icon Library.</desc>
  <path data-name="layer2"
  fill="none" stroke="#333333" stroke-miterlimit="10" stroke-width="2" d="M62 35v20.4L45 61l-17-5.6V35l17-5.7L62 35z"
  stroke-linejoin="round" stroke-linecap="round"></path>
  <path data-name="layer2" fill="none" stroke="#333333" stroke-miterlimit="10"
  stroke-width="2" d="M62 35l-17 5.6L28 35m17 5.6V61M28 33.2v15.6l-13 4.3-13-4.3V33.2l13-4.3 13 4.3z"
  stroke-linejoin="round" stroke-linecap="round"></path>
  <path data-name="layer2" fill="none" stroke="#333333" stroke-miterlimit="10"
  stroke-width="2" d="M28 33.2l-13 4.3-13-4.3m13 4.3v15.6" stroke-linejoin="round"
  stroke-linecap="round"></path>
  <path data-name="layer1" fill="none" stroke="#333333" stroke-miterlimit="10"
  stroke-width="2" d="M42 6.9v14.2L30 25l-12-3.9V6.9L30 3l12 3.9z" stroke-linejoin="round"
  stroke-linecap="round"></path>
  <path data-name="layer1" fill="none" stroke="#333333" stroke-miterlimit="10"
  stroke-width="2" d="M42 6.9l-12 4-12-4m12 4V25" stroke-linejoin="round"
  stroke-linecap="round"></path>
</svg>