<svg xmlns="http://www.w3.org/2000/svg" viewBox="0 0 64 64" aria-labelledby="title"
aria-describedby="desc" role="img" xmlns:xlink="http://www.w3.org/1999/xlink"
width="64" height="64">
  <title>Dribbble</title>
  <desc>A line styled icon from Orion Icon Library.</desc>
  <path data-name="layer1"
  d="M32 2a30 30 0 1 0 30 30A29.968 29.968 0 0 0 32 2z" fill="none" stroke="#333333"
  stroke-linecap="round" stroke-miterlimit="10" stroke-width="2" stroke-linejoin="round"></path>
  <path data-name="layer1" d="M51.687 16.531a25.43 25.43 0 0 1 5.344 14.812 53.421 53.421 0 0 0-17.531-.468q-.984-2.25-1.969-4.219a36.573 36.573 0 0 0 14.156-10.125zM32 6.969a24.691 24.691 0 0 1 16.219 6 32.072 32.072 0 0 1-13.031 9.281 128.952 128.952 0 0 0-9.094-14.625A24.276 24.276 0 0 1 32 6.969zM21.219 9.406A133.861 133.861 0 0 1 30.5 23.75c-7.031 1.969-14.906 2.438-22.875 2.438A25.079 25.079 0 0 1 21.219 9.406zM6.969 32v-.844h.094c8.906 0 17.812-.563 25.781-2.906.562 1.219 1.219 2.438 1.781 3.75-10.5 3.094-16.969 9.937-21.469 16.5A25.1 25.1 0 0 1 6.969 32zM32 57.031a25.144 25.144 0 0 1-15.188-5.156C21.031 45.5 26.937 39.219 36.5 36.594a88.509 88.509 0 0 1 5.063 18.562A25.2 25.2 0 0 1 32 57.031zm14.156-4.406a97.005 97.005 0 0 0-4.687-17.063 48.027 48.027 0 0 1 15.281.656 25.32 25.32 0 0 1-10.594 16.407z"
  fill="none" stroke="#333333" stroke-linecap="round" stroke-miterlimit="10"
  stroke-width="2" stroke-linejoin="round"></path>
</svg>