<svg xmlns="http://www.w3.org/2000/svg" viewBox="0 0 64 64" aria-labelledby="title"
aria-describedby="desc" role="img" xmlns:xlink="http://www.w3.org/1999/xlink"
width="64" height="64">
  <title>Paypal</title>
  <desc>A line styled icon from Orion Icon Library.</desc>
  <path data-name="layer2"
  d="M13.5 52.827l-1.491 5.9a2.474 2.474 0 0 0 .557 2.246A2.59 2.59 0 0 0 14.61 62h9.1a2.6 2.6 0 0 0 2.6-2.153l3.159-14.789h10.4a20.645 20.645 0 0 0 13.284-4.587A21.736 21.736 0 0 0 60.408 28.3c1.022-4.961.279-9.08-2.322-12.262a12.454 12.454 0 0 0-1.951-1.872 28.909 28.909 0 0 0-2.907-1.966"
  fill="none" stroke="#333333" stroke-linecap="round" stroke-miterlimit="10"
  stroke-width="2" stroke-linejoin="round"></path>
  <path data-name="layer1" d="M18.976 50.768l3.159-14.7h10.4a20.645 20.645 0 0 0 13.284-4.587 21.736 21.736 0 0 0 7.246-12.168c1.022-4.961.279-9.173-2.23-12.356A14.337 14.337 0 0 0 39.785 2H17.118a2.6 2.6 0 0 0-2.6 2.153L4.67 49.551a2.474 2.474 0 0 0 .557 2.249 2.59 2.59 0 0 0 2.044 1.03h9.1a2.536 2.536 0 0 0 2.605-2.062zm8.361-38.378h7.153a5.1 5.1 0 0 1 4.088 1.966 5.694 5.694 0 0 1 .836 4.961v.094c-.929 3.838-4.645 6.927-8.268 6.927h-6.875z"
  fill="none" stroke="#333333" stroke-linecap="round" stroke-miterlimit="10"
  stroke-width="2" stroke-linejoin="round"></path>
</svg>