<svg xmlns="http://www.w3.org/2000/svg" viewBox="0 0 64 64" aria-labelledby="title"
aria-describedby="desc" role="img" xmlns:xlink="http://www.w3.org/1999/xlink"
width="64" height="64">
  <title>Wifi</title>
  <desc>A line styled icon from Orion Icon Library.</desc>
  <path data-name="layer2"
  d="M32 46.8a6.1 6.1 0 0 0-4.5 2 1 1 0 0 0 0 1.4l3.7 3.8a1 1 0 0 0 1.4 0l3.7-3.8a1 1 0 0 0 0-1.4 6.1 6.1 0 0 0-4.3-2z"
  fill="none" stroke="#333333" stroke-linecap="round" stroke-linejoin="round"
  stroke-width="2"></path>
  <path data-name="layer1" d="M18.4 39.9l4 4.5a14.6 14.6 0 0 1 19.2 0l4-4.5a20.6 20.6 0 0 0-27.1 0z"
  fill="none" stroke="#333333" stroke-linecap="round" stroke-linejoin="round"
  stroke-width="2"></path>
  <path data-name="layer2" d="M10.2 30.4l4 4.5a27.2 27.2 0 0 1 35.8 0l4-4.5a33.2 33.2 0 0 0-43.7 0z"
  fill="none" stroke="#333333" stroke-linecap="round" stroke-linejoin="round"
  stroke-width="2"></path>
  <path data-name="layer1" d="M32 9.8A45.6 45.6 0 0 0 2 21l4 4.5a39.6 39.6 0 0 1 52.1 0L62 21A45.6 45.6 0 0 0 32 9.8z"
  fill="none" stroke="#333333" stroke-linecap="round" stroke-linejoin="round"
  stroke-width="2"></path>
</svg>