<svg viewBox="0 0 64 64" xmlns="http://www.w3.org/2000/svg" aria-labelledby="title"
aria-describedby="desc" role="img" xmlns:xlink="http://www.w3.org/1999/xlink"
width="64" height="64">
  <title>Hourglass</title>
  <desc>A line styled icon from Orion Icon Library.</desc>
  <path stroke-width="2"
  stroke-miterlimit="10" stroke-linecap="round" stroke="#333333" fill="none"
  d="M48 57v-8.487a14 14 0 0 0-5.953-11.457l-5.527-3.881a1 1 0 0 1 0-1.637l5.526-3.881A14 14 0 0 0 48 16.2V7M16 7v9.2a14 14 0 0 0 5.954 11.457l5.526 3.881a1 1 0 0 1 0 1.637l-5.526 3.881A14 14 0 0 0 16 48.513V57"
  data-name="layer2" stroke-linejoin="round"></path>
  <path stroke-width="2" stroke-miterlimit="10" stroke-linecap="round"
  stroke="#333333" fill="none" d="M16 55c4 0 9.959-5.608 12.984-8a5.114 5.114 0 0 1 6.024-.016C38.057 49.355 44 55 48 55M20.084 26c8-3.205 14.6 3.65 24.121-.216M27.816 32.77C30.687 33.5 31.833 37 32 37c.132 0 .867-3.384 4.1-4.705"
  data-name="layer2" stroke-linejoin="round"></path>
  <rect stroke-width="2" stroke-miterlimit="10" stroke-linecap="round"
  stroke="#333333" fill="none" ry="1" rx="1" height="5" width="38" y="57"
  x="13" data-name="layer1" stroke-linejoin="round"></rect>
  <rect stroke-width="2" stroke-miterlimit="10" stroke-linecap="round"
  stroke="#333333" fill="none" ry="1" rx="1" height="5" width="38" y="2"
  x="13" data-name="layer1" stroke-linejoin="round"></rect>
</svg>