<svg xmlns="http://www.w3.org/2000/svg" viewBox="0 0 64 64" aria-labelledby="title"
aria-describedby="desc" role="img" xmlns:xlink="http://www.w3.org/1999/xlink"
width="64" height="64">
  <title>Skype</title>
  <desc>A line styled icon from Orion Icon Library.</desc>
  <path data-name="layer2"
  d="M57.594 36.031A28 28 0 0 0 57.969 32 26.707 26.707 0 0 0 31.25 5.281a18.975 18.975 0 0 0-4.031.375A15.605 15.605 0 0 0 17.281 2 15.284 15.284 0 0 0 2 17.281a15.071 15.071 0 0 0 3.094 9.187 27.958 27.958 0 0 0-.656 5.625 26.707 26.707 0 0 0 26.718 26.719 27 27 0 0 0 5.531-.562 15.264 15.264 0 0 0 20.907-22.219z"
  fill="none" stroke="#333333" stroke-linecap="round" stroke-miterlimit="10"
  stroke-width="2" stroke-linejoin="round"></path>
  <path data-name="layer1" d="M43.719 43.719a11.218 11.218 0 0 1-4.594 3.562 18.724 18.724 0 0 1-7.219 1.313 16.555 16.555 0 0 1-8.25-1.781 10.829 10.829 0 0 1-3.75-3.375 7.239 7.239 0 0 1-1.406-4.032 2.7 2.7 0 0 1 .844-1.969 3.041 3.041 0 0 1 2.25-.844 2.7 2.7 0 0 1 1.875.656 5.059 5.059 0 0 1 1.312 1.875 14.016 14.016 0 0 0 1.406 2.437 6.245 6.245 0 0 0 2.063 1.689 7.805 7.805 0 0 0 3.562.656 8.882 8.882 0 0 0 4.969-1.313 3.72 3.72 0 0 0 1.875-3.281 3.462 3.462 0 0 0-1.031-2.531 7.148 7.148 0 0 0-2.625-1.5c-1.125-.375-2.531-.656-4.313-1.125a31.541 31.541 0 0 1-6.094-1.875 11.351 11.351 0 0 1-3.937-2.906 7.161 7.161 0 0 1-1.406-4.5 7.491 7.491 0 0 1 1.5-4.594 9.823 9.823 0 0 1 4.406-3.094 18.919 18.919 0 0 1 6.75-1.031 15.332 15.332 0 0 1 5.344.75A11.688 11.688 0 0 1 41 18.781a7.359 7.359 0 0 1 2.156 2.438 5.1 5.1 0 0 1 .656 2.531 3.04 3.04 0 0 1-3 3 2.538 2.538 0 0 1-1.781-.563 7.921 7.921 0 0 1-1.313-1.781 8.137 8.137 0 0 0-2.25-2.719 6.82 6.82 0 0 0-4.125-1.031 8.381 8.381 0 0 0-4.313 1.031 3 3 0 0 0-1.594 2.531A2.366 2.366 0 0 0 26 25.813a3.729 3.729 0 0 0 1.5 1.125 16.9 16.9 0 0 0 1.969.75c.656.188 1.781.469 3.281.844a51.381 51.381 0 0 1 5.156 1.312 19.153 19.153 0 0 1 3.938 1.781 7.016 7.016 0 0 1 2.531 2.719 8.716 8.716 0 0 1 .938 3.938 9.811 9.811 0 0 1-1.594 5.437z"
  fill="none" stroke="#333333" stroke-linecap="round" stroke-miterlimit="10"
  stroke-width="2" stroke-linejoin="round"></path>
</svg>