<svg xmlns="http://www.w3.org/2000/svg" viewBox="0 0 64 64" aria-labelledby="title"
aria-describedby="desc" role="img" xmlns:xlink="http://www.w3.org/1999/xlink"
width="64" height="64">
  <title>Behance</title>
  <desc>A line styled icon from Orion Icon Library.</desc>
  <path data-name="layer2"
  d="M26.828 31.725c3.185-1.606 4.591-4.156 4.591-7.84 0-6.99-5.153-9.635-12.18-9.635H2v37.5h17.333c6.652 0 13.21-3.306 13.21-10.863 0-4.345-1.593-7.745-5.715-9.162zM10.62 20.673h7.589c2.9 0 5.715.756 5.715 4.345 0 2.928-2.155 4.062-4.966 4.062H10.62zm8.245 24.654H10.62V35.314h8.432c3.467 0 5.715 1.322 5.715 5.2 0 3.586-2.717 4.813-5.903 4.813z"
  fill="none" stroke="#333333" stroke-linecap="round" stroke-miterlimit="10"
  stroke-width="2" stroke-linejoin="round"></path>
  <path data-name="layer1" d="M49.126 23.035c-9.275 0-13.679 6.234-13.679 14.358 0 9.257 5.528 14.263 13.679 14.263 6.09 0 10.493-2.456 12.555-8.785h-7.214c-.468 1.7-2.811 3.117-5.059 3.117-4.122 0-6.652-2.267-6.839-6.8h19.393c.468-8.408-3.373-16.153-12.836-16.153zm-6.464 11.524a5.639 5.639 0 0 1 6-5.668c3.56 0 5.34 1.889 6.09 5.668zm-1.593-18.798h15.084v3.778H41.069z"
  fill="none" stroke="#333333" stroke-linecap="round" stroke-miterlimit="10"
  stroke-width="2" stroke-linejoin="round"></path>
</svg>