<svg xmlns="http://www.w3.org/2000/svg" viewBox="0 0 64 64" aria-labelledby="title"
aria-describedby="desc" role="img" xmlns:xlink="http://www.w3.org/1999/xlink"
width="64" height="64">
  <title>VK</title>
  <desc>A line styled icon from Orion Icon Library.</desc>
  <path data-name="layer1"
  d="M31.362 50.823h3.567a2.16 2.16 0 0 0 1.6-.758 2.988 2.988 0 0 0 .469-1.611s-.094-4.832 2.159-5.59c2.159-.663 4.975 4.737 8.073 6.822a6.8 6.8 0 0 0 4.037 1.137h7.979c.563 0 4.037-.474 2.253-3.7-.188-.284-1.126-2.463-6.008-7.011-5.069-4.737-4.318-3.979 1.69-12.128 3.661-4.927 5.069-7.959 4.694-9.285-.282-1.042-3.192-.853-3.192-.853h-9.016a1.955 1.955 0 0 0-1.126.189 2.332 2.332 0 0 0-.751.947 45.451 45.451 0 0 1-3.379 7.106c-4.037 6.917-5.632 7.3-6.29 6.822-1.5-1.042-1.126-3.979-1.126-6.159 0-6.727 1.033-9.475-1.971-10.233a13.1 13.1 0 0 0-4.224-.379c-3.192 0-5.914 0-7.51.758-1.033.474-1.784 1.611-1.314 1.705a4.1 4.1 0 0 1 2.624 1.333c.939 1.232.939 4.169.939 4.169s.563 7.864-1.22 8.812c-1.22.663-2.91-.663-6.477-6.917a50.473 50.473 0 0 1-3.192-6.727 3.093 3.093 0 0 0-.75-1.042 2.563 2.563 0 0 0-1.408-.568H3.95s-1.314-.095-1.784.663a1.907 1.907 0 0 0 0 1.516s6.76 15.917 14.364 23.876c6.947 7.675 14.832 7.106 14.832 7.106z"
  fill="none" stroke="#333333" stroke-linecap="round" stroke-miterlimit="10"
  stroke-width="2" stroke-linejoin="round"></path>
</svg>