<svg xmlns="http://www.w3.org/2000/svg" viewBox="0 0 64 64" aria-labelledby="title"
aria-describedby="desc" role="img" xmlns:xlink="http://www.w3.org/1999/xlink"
width="64" height="64">
  <title>Google Drive</title>
  <desc>A line styled icon from Orion Icon Library.</desc>
  <path data-name="layer1"
  d="M28.762 40.175l-9.453 16.343a.5.5 0 0 0 .433.75H51.68a.5.5 0 0 0 .433-.25l9.453-16.344a.5.5 0 0 0-.433-.75H29.195a.5.5 0 0 0-.433.251z"
  fill="none" stroke="#333333" stroke-linecap="round" stroke-miterlimit="10"
  stroke-width="2" stroke-linejoin="round"></path>
  <path data-name="layer2" d="M59.187 35.05L42.176 5.581a.5.5 0 0 0-.433-.25H22.835a.5.5 0 0 0-.433.75L38.981 34.8a.5.5 0 0 0 .433.25z"
  fill="none" stroke="#333333" stroke-linecap="round" stroke-miterlimit="10"
  stroke-width="2" stroke-linejoin="round"></path>
  <path data-name="layer1" d="M18.724 10.956L2.144 39.675a.5.5 0 0 0 0 .5L11.6 56.52a.5.5 0 0 0 .866 0L29.043 27.8a.5.5 0 0 0 0-.5l-9.454-16.345a.5.5 0 0 0-.865.001z"
  fill="none" stroke="#333333" stroke-linecap="round" stroke-miterlimit="10"
  stroke-width="2" stroke-linejoin="round"></path>
</svg>