<svg xmlns="http://www.w3.org/2000/svg" viewBox="0 0 64 64" aria-labelledby="title"
aria-describedby="desc" role="img" xmlns:xlink="http://www.w3.org/1999/xlink"
width="64" height="64">
  <title>Puzzle</title>
  <desc>A line styled icon from Orion Icon Library.</desc>
  <path data-name="layer1"
  d="M56 38a5.9 5.9 0 0 0-4.5 2c-1.4 1.4-5.5 2-5.5-2V18H30c-4 0-3.4-4.1-2-5.5a6 6 0 1 0-8 0c1.4 1.4 2 5.5-2 5.5H2v8c0 4 4.1 3.4 5.5 2a5.9 5.9 0 0 1 4.5-2 6 6 0 1 1-4.5 10C6.1 34.6 2 34 2 38v24h24c4 0 3.4-4.1 2-5.5a5.9 5.9 0 0 1-2-4.5 6 6 0 1 1 10 4.5c-1.4 1.4-2 5.5 2 5.5h8V50c0-4 4.1-3.4 5.5-2A6 6 0 1 0 56 38z"
  fill="none" stroke="#333333" stroke-linecap="round" stroke-linejoin="round"
  stroke-width="2"></path>
</svg>