<svg xmlns="http://www.w3.org/2000/svg" viewBox="0 0 64 64" aria-labelledby="title"
aria-describedby="desc" role="img" xmlns:xlink="http://www.w3.org/1999/xlink"
width="64" height="64">
  <title>Cutlery</title>
  <desc>A line styled icon from Orion Icon Library.</desc>
  <path data-name="layer2"
  fill="none" stroke="#333333" stroke-linecap="round" stroke-linejoin="round"
  stroke-width="2" d="M18.4 22.9L5.5 9.9m3.4-3.5l13 13m16.5 23.5L55.6 60a2.4 2.4 0 0 0 3.4-3.4L42.5 40m-8.7-8.7l-3.6-3.6c2-3 2.1-6.6-.7-9.3L12.4 3 2 13.3l15.5 17.2c2.7 2.7 6.3 2.7 9.3.7l3.6 3.6"></path>
  <path data-name="layer1" d="M28.2 37L8.3 56.9a2.4 2.4 0 0 0 0 3.5 2.4 2.4 0 0 0 3.5 0l19.8-20"
  fill="none" stroke="#333333" stroke-linecap="round" stroke-linejoin="round"
  stroke-width="2"></path>
  <path data-name="layer1" d="M28.2 37L58.4 6.7a12.2 12.2 0 0 1 0 17.3L41.1 41.3a6.1 6.1 0 0 1-8.7 0z"
  fill="none" stroke="#333333" stroke-linecap="round" stroke-linejoin="round"
  stroke-width="2"></path>
</svg>