<svg xmlns="http://www.w3.org/2000/svg" viewBox="0 0 64 64" aria-labelledby="title"
aria-describedby="desc" role="img" xmlns:xlink="http://www.w3.org/1999/xlink"
width="64" height="64">
  <title>Camera Phone</title>
  <desc>A line styled icon from Orion Icon Library.</desc>
  <rect data-name="layer2"
  x="14" y="2" width="36" height="60" rx="4" ry="4" fill="none" stroke="#333333"
  stroke-miterlimit="10" stroke-width="2" stroke-linejoin="round" stroke-linecap="round"></rect>
  <path data-name="layer2" fill="none" stroke="#333333" stroke-miterlimit="10"
  stroke-width="2" d="M14 10h25m6 0h5M14 48h36" stroke-linejoin="round" stroke-linecap="round"></path>
  <circle data-name="layer2" cx="32" cy="55" r="3" fill="none" stroke="#333333"
  stroke-miterlimit="10" stroke-width="2" stroke-linejoin="round" stroke-linecap="round"></circle>
  <circle data-name="layer2" cx="42" cy="10" r="3" fill="none"
  stroke="#333333" stroke-miterlimit="10" stroke-width="2" stroke-linejoin="round"
  stroke-linecap="round"></circle>
  <path data-name="layer1" d="M45 48a13.5 13.5 0 0 0-8.7-12.7 8.7 8.7 0 0 0 3.3-6.9c0-4.6-3.4-8.4-7.6-8.4s-7.6 3.8-7.6 8.4a8.7 8.7 0 0 0 3.3 6.9A13.5 13.5 0 0 0 19 48"
  fill="none" stroke="#333333" stroke-miterlimit="10" stroke-width="2" stroke-linejoin="round"
  stroke-linecap="round"></path>
</svg>