<svg xmlns="http://www.w3.org/2000/svg" viewBox="0 0 64 64" aria-labelledby="title"
aria-describedby="desc" role="img" xmlns:xlink="http://www.w3.org/1999/xlink"
width="64" height="64">
  <title>Amazon</title>
  <desc>A line styled icon from Orion Icon Library.</desc>
  <path data-name="layer2"
  d="M47.656 32.8V13.081c0-3.38-3.282-11.08-15-11.08-11.816-.094-18.1 7.23-18.1 13.9l9.847.845s2.157-6.667 7.315-6.667 4.782 4.128 4.782 4.973a42.547 42.547 0 0 0-.094 4.413c-6.471.188-22.695 2.066-22.695 15.774 0 14.648 18.475 15.3 24.57 5.821a4.415 4.415 0 0 0 .844 1.127c2.251 2.347 5.252 5.164 5.252 5.164l7.6-7.512s-4.321-3.379-4.321-7.039zM36.4 31.108c0 10.8-11.254 9.108-11.254 2.347 0-6.291 6.752-7.606 11.254-7.7z"
  fill="none" stroke="#333333" stroke-linecap="round" stroke-miterlimit="10"
  stroke-width="2" stroke-linejoin="round"></path>
  <path data-name="layer1" d="M53.939 51.39c-24.758 11.737-40.044 1.878-49.891-4.038-.563-.376-1.688.094-.75 1.127C6.58 52.423 17.271 62 31.244 62s22.32-7.7 23.351-9.014c1.126-1.314.375-2.066-.656-1.596z"
  fill="none" stroke="#333333" stroke-linecap="round" stroke-miterlimit="10"
  stroke-width="2" stroke-linejoin="round"></path>
  <path data-name="layer1" d="M60.879 47.54c-.656-.845-4.033-1.033-6.189-.751s-5.345 1.6-5.064 2.347c.094.282.469.188 1.876 0 1.5-.188 5.533-.657 6.471.469.844 1.127-1.313 6.479-1.688 7.324s.188 1.127.844.469a10.37 10.37 0 0 0 2.813-4.225c.937-1.973 1.405-4.973.937-5.633z"
  fill="none" stroke="#333333" stroke-linecap="round" stroke-miterlimit="10"
  stroke-width="2" stroke-linejoin="round"></path>
</svg>