<svg viewBox="0 0 64 64" xmlns="http://www.w3.org/2000/svg" aria-labelledby="title"
aria-describedby="desc" role="img" xmlns:xlink="http://www.w3.org/1999/xlink"
width="64" height="64">
  <title>Reload Database</title>
  <desc>A line styled icon from Orion Icon Library.</desc>
  <ellipse stroke-width="2"
  stroke-linejoin="round" stroke-linecap="round" stroke="#333333" fill="none"
  ry="8" rx="23" cy="11" cx="26" data-name="layer2"></ellipse>
  <path stroke-width="2" stroke-linejoin="round" stroke-linecap="round"
  stroke="#333333" fill="none" d="M49 23.02c0 4.396-10.297 7.96-23 7.96S3 27.416 3 23.02"
  data-name="layer2"></path>
  <path d="M51.402 49l4.797 4.848L61 49" stroke-width="2" stroke-linejoin="round"
  stroke-linecap="round" stroke="#333333" fill="none" data-name="layer1"></path>
  <path stroke-width="2" stroke-linejoin="round" stroke-linecap="round"
  stroke="#333333" fill="none" d="M44.656 61a12.005 12.005 0 1 1 11.657-12 12.282 12.282 0 0 1-.739 4.215"
  data-name="layer1"></path>
  <path d="M49 37.656V10.961M34.867 42.368A61.167 61.167 0 0 1 26 42.98c-12.703 0-23-3.564-23-7.96"
  stroke-width="2" stroke-linejoin="round" stroke-linecap="round" stroke="#333333"
  fill="none" data-name="layer2"></path>
  <path stroke-width="2" stroke-linejoin="round" stroke-linecap="round"
  stroke="#333333" fill="none" d="M34.25 54.52a79.154 79.154 0 0 1-8.25.44c-12.703 0-23-3.563-23-7.96V11"
  data-name="layer2"></path>
</svg>