<svg xmlns="http://www.w3.org/2000/svg" viewBox="0 0 64 64" aria-labelledby="title"
aria-describedby="desc" role="img" xmlns:xlink="http://www.w3.org/1999/xlink"
width="64" height="64">
  <title>Keyboard</title>
  <desc>A line styled icon from Orion Icon Library.</desc>
  <path data-name="layer2"
  d="M31 26v-1.3a6.7 6.7 0 0 1 6.7-6.7H55a6 6 0 0 0 6-6 6 6 0 0 0-6-6H27a4 4 0 0 1-4-4"
  fill="none" stroke="#333333" stroke-linecap="round" stroke-linejoin="round"
  stroke-width="2"></path>
  <rect data-name="layer1" x="3" y="26" width="58" height="36" rx="2"
  ry="2" fill="none" stroke="#333333" stroke-linecap="round" stroke-linejoin="round"
  stroke-width="2"></rect>
  <path data-name="layer1" fill="none" stroke="#333333" stroke-linecap="round"
  stroke-linejoin="round" stroke-width="2" d="M10 32h4v4h-4zm10 0h4v4h-4zm10 0h4v4h-4zm10 0h4v4h-4zm10 0h4v4h-4zM10 42h4v4h-4zm0 10h4v4h-4zm10 0h34v4H20zm0-10h4v4h-4zm10 0h4v4h-4zm10 0h4v4h-4zm10 0h4v4h-4z"></path>
</svg>