<svg xmlns="http://www.w3.org/2000/svg" viewBox="0 0 64 64" aria-labelledby="title"
aria-describedby="desc" role="img" xmlns:xlink="http://www.w3.org/1999/xlink"
width="64" height="64">
  <title>Settings Database</title>
  <desc>A line styled icon from Orion Icon Library.</desc>
  <ellipse data-name="layer2"
  cx="25" cy="10" rx="23" ry="8" fill="none" stroke="#333333" stroke-linecap="round"
  stroke-linejoin="round" stroke-width="2"></ellipse>
  <path data-name="layer2" fill="none" stroke="#333333" stroke-linecap="round"
  stroke-linejoin="round" stroke-width="2" d="M48 32V10m0 12c0 4.4-10.3 8-23 8S2 26.4 2 22m30.9 19.5a63.3 63.3 0 0 1-7.9.5c-12.7 0-23-3.6-23-8"></path>
  <path data-name="layer2" d="M33.1 53.5a63.2 63.2 0 0 1-8.1.5c-12.7 0-23-3.6-23-8V10"
  fill="none" stroke="#333333" stroke-linecap="round" stroke-linejoin="round"
  stroke-width="2"></path>
  <circle data-name="layer1" cx="46.8" cy="47" r="5" fill="none"
  stroke="#333333" stroke-linecap="round" stroke-linejoin="round" stroke-width="2"></circle>
  <path data-name="layer1" d="M62 51l-3.4-2a11.8 11.8 0 0 0 .2-2.1 11.9 11.9 0 0 0-.2-2.3l3.1-1.6-4-6.9-3.1 1.8a12 12 0 0 0-3.7-2.1V32h-8v3.7a12 12 0 0 0-3.7 2.1L36 36l-4 7 3 1.7a11.7 11.7 0 0 0-.2 2.3 11.9 11.9 0 0 0 .2 2.1L31.7 51l4 6.9 3.3-1.8a12 12 0 0 0 3.8 2.2V62h8v-3.7a12.1 12.1 0 0 0 3.9-2.3l3.3 2z"
  fill="none" stroke="#333333" stroke-linecap="round" stroke-linejoin="round"
  stroke-width="2"></path>
</svg>