<svg xmlns="http://www.w3.org/2000/svg" viewBox="0 0 64 64" aria-labelledby="title"
aria-describedby="desc" role="img" xmlns:xlink="http://www.w3.org/1999/xlink"
width="64" height="64">
  <title>Wireless</title>
  <desc>A line styled icon from Orion Icon Library.</desc>
  <path data-name="layer2"
  d="M53 51a2 2 0 0 1-2 2 2 2 0 0 1-2-2 2 2 0 0 1 2-2 2 2 0 0 1 2 2z" fill="none"
  stroke="#333333" stroke-linecap="round" stroke-linejoin="round" stroke-width="2"></path>
  <path data-name="layer1" d="M20.8 30.8A15 15 0 0 1 43 31m-30.7-8.8a27.1 27.1 0 0 1 39.2.3M3.8 13.8a39.8 39.8 0 0 1 56.5 0"
  fill="none" stroke="#333333" stroke-linecap="round" stroke-linejoin="round"
  stroke-width="2"></path>
  <rect data-name="layer1" x="2" y="42" width="60" height="20" rx="2"
  ry="2" fill="none" stroke="#333333" stroke-linecap="round" stroke-linejoin="round"
  stroke-width="2"></rect>
</svg>