<svg xmlns="http://www.w3.org/2000/svg" viewBox="0 0 64 64" aria-labelledby="title"
aria-describedby="desc" role="img" xmlns:xlink="http://www.w3.org/1999/xlink"
width="64" height="64">
  <title>In Love</title>
  <desc>A line styled icon from Orion Icon Library.</desc>
  <path data-name="layer2"
  d="M37.8 27.9l1.4-1.8.7-1.2v-.2l.5-1.3a10 10 0 0 0-6.5-12.6 10.8 10.8 0 0 0-11.6 3.3 10.8 10.8 0 0 0-7.5-9.3A10 10 0 0 0 2.6 11h-.1a9.9 9.9 0 0 0-.5 3c-.4 8.9 6.7 20.3 11.7 28 5.5-2.3 12.7-5.5 18.3-9.3"
  fill="none" stroke="#333333" stroke-miterlimit="10" stroke-width="2" stroke-linejoin="round"
  stroke-linecap="round"></path>
  <path data-name="layer1" d="M25.6 44.3l1.6 1.9c5.4 5.7 14.2 10.2 20.8 13.6 5.6-7.3 13.4-18.6 14-26.6a9.7 9.7 0 0 0 0-1.4v-.2a10 10 0 0 0-.2-1.4 10 10 0 0 0-12-7.6 10.8 10.8 0 0 0-8.3 8.7A10.8 10.8 0 0 0 30.3 27a10 10 0 0 0-7.7 11.2"
  fill="none" stroke="#333333" stroke-miterlimit="10" stroke-width="2" stroke-linejoin="round"
  stroke-linecap="round"></path>
</svg>