<svg xmlns="http://www.w3.org/2000/svg" viewBox="0 0 64 64" aria-labelledby="title"
aria-describedby="desc" role="img" xmlns:xlink="http://www.w3.org/1999/xlink"
width="64" height="64">
  <title>Pinterest</title>
  <desc>A line styled icon from Orion Icon Library.</desc>
  <path data-name="layer1"
  d="M32 1.994a30.016 30.016 0 0 0-11.906 57.563 24.712 24.712 0 0 1 .563-6.844c.563-2.437 3.844-16.406 3.844-16.406a12.129 12.129 0 0 1-.938-4.781c0-4.5 2.625-7.781 5.813-7.781 2.719 0 4.031 2.063 4.031 4.5 0 2.719-1.781 6.844-2.625 10.688a4.677 4.677 0 0 0 4.781 5.813c5.719 0 9.563-7.312 9.563-16.031 0-6.562-4.406-11.531-12.563-11.531-9.094 0-14.812 6.844-14.812 14.437a8.6 8.6 0 0 0 1.969 5.906 1.505 1.505 0 0 1 .469 1.687c-.188.562-.469 1.875-.656 2.437a1.04 1.04 0 0 1-1.5.75c-4.219-1.687-6.188-6.281-6.188-11.531 0-8.531 7.219-18.844 21.563-18.844 11.531 0 19.031 8.344 19.031 17.25 0 11.812-6.562 20.625-16.219 20.625-3.281 0-6.281-1.781-7.312-3.75 0 0-1.781 6.938-2.156 8.25a26.631 26.631 0 0 1-3 6.375A26.63 26.63 0 0 0 32 61.994a30 30 0 1 0 0-60z"
  fill="none" stroke="#333333" stroke-linecap="round" stroke-miterlimit="10"
  stroke-width="2" stroke-linejoin="round"></path>
</svg>