<svg xmlns="http://www.w3.org/2000/svg" viewBox="0 0 64 64" aria-labelledby="title"
aria-describedby="desc" role="img" xmlns:xlink="http://www.w3.org/1999/xlink"
width="64" height="64">
  <title>Paint Bucket</title>
  <desc>A line styled icon from Orion Icon Library.</desc>
  <path data-name="layer2"
  fill="none" stroke="#333333" stroke-miterlimit="10" stroke-width="2" d="M8.1 34.7L35.4 62l24.8-24.8L32.9 9.9M6.3 36.6L32.9 9.9"
  stroke-linejoin="round" stroke-linecap="round"></path>
  <path data-name="layer1" d="M13.7 40.3l14.8-14.8a1.8 1.8 0 0 1 2.5 0l13.6 13.7a1.8 1.8 0 0 1 0 2.5L29.8 56.4"
  fill="none" stroke="#333333" stroke-miterlimit="10" stroke-width="2" stroke-linejoin="round"
  stroke-linecap="round"></path>
  <circle data-name="layer2" cx="32.9" cy="16.9" r="1.8" transform="rotate(-45 32.89 16.876)"
  fill="none" stroke="#333333" stroke-miterlimit="10" stroke-width="2" stroke-linejoin="round"
  stroke-linecap="round"></circle>
  <path data-name="layer2" fill="none" stroke="#333333" stroke-miterlimit="10"
  stroke-width="2" d="M32.9 15.2V2" stroke-linejoin="round" stroke-linecap="round"></path>
  <path data-name="layer1" d="M7.3 39.9s-3.5 4.2-3.5 7.6a3.4 3.4 0 0 0 3.5 3.4 3.4 3.4 0 0 0 3.5-3.4c0-3.1-3.5-7.6-3.5-7.6z"
  fill="none" stroke="#333333" stroke-miterlimit="10" stroke-width="2" stroke-linejoin="round"
  stroke-linecap="round"></path>
</svg>