<svg xmlns="http://www.w3.org/2000/svg" viewBox="0 0 64 64" aria-labelledby="title"
aria-describedby="desc" role="img" xmlns:xlink="http://www.w3.org/1999/xlink"
width="64" height="64">
  <title>Puzzle</title>
  <desc>A line styled icon from Orion Icon Library.</desc>
  <path data-name="layer1"
  d="M51.2 21.2c-2.9-2.9.5-5.4 2.5-5.4a6 6 0 1 0-5.7-5.7c0 2-2.5 5.4-5.4 2.5L32 2 21.4 12.6c-2.9 2.9.5 5.4 2.5 5.4a6.1 6.1 0 1 1-5.7 5.7c0-2-2.5-5.4-5.4-2.5L2 32l10.8 10.8c2.9 2.9-.5 5.4-2.5 5.4a6.1 6.1 0 1 0 3.9 10.3 6 6 0 0 0 1.8-4.6c0-2 2.5-5.4 5.4-2.5L32 62l10.8-10.8c2.9-2.9-.5-5.4-2.5-5.4a6 6 0 1 1 5.7-5.7c0 2 2.5 5.4 5.4 2.5L62 32z"
  fill="none" stroke="#333333" stroke-linecap="round" stroke-linejoin="round"
  stroke-width="2"></path>
</svg>